<svg xmlns="http://www.w3.org/2000/svg" width="175" height="513" stroke="#000" stroke-linecap="round" stroke-linejoin="round" fill="#fff" fill-rule="evenodd"><style><![CDATA[.B{stroke-linecap:square}.C{stroke:#00f}.D{stroke:red}.E{fill:none}.F{fill-rule:nonzero}.G{fill:#000}.H{stroke-width:2}]]></style><g stroke-linejoin="miter"><g class="E"><path d="M50.5 377.0712c0 19.5888-11.15 35.3575-25 35.3575S.5 396.66.5 377.0712s11.15-35.3562 25-35.3562 25 15.7687 25 35.3562z"/><path d="M25.5 436v-23.5704" class="B"/><path d="M50.5 329.9282c0 19.5888-11.15 35.3575-25 35.3575S.5 349.517.5 329.9282s11.15-35.3562 25-35.3562 25 15.7687 25 35.3562z"/><path d="M25.5 294.5714V271.001" class="B"/></g><g class="F G B"><path d="M25.5 270.9994v2.3575" class="C"/><path d="M25.5 271.5896v1.7675" class="D"/><path d="M25.5 436v-2.3575" class="C"/><path d="M25.5 435.4105v-1.7675" class="D"/></g><path d="M25.5 249.3333V271m0-43.3334V206m.0001 21.6661L33.5 252.5815" class="E B"/><g class="F G B"><path d="M25.5 271.0001v-2.1663" class="C"/><path d="M25.5 270.4583v-1.625" class="D"/><path d="M25.5 206.0006v2.1661" class="C"/><path d="M25.5 206.5416v1.625" class="D"/></g><g class="E B"><path d="M22.9999 252.0001l4.9969-4.9993"/><path d="M22.9999 247l4.9969 4.9993"/></g><g class="F G B"><path d="M21.875 3h-4.0372" class="C"/><path d="M20.8656 3H17.838" class="D"/></g><g class="E"><path d="M23 3.25C23 1.7266 24.3384.5 26 .5s3 1.2266 3 2.75S27.6624 6 26 6s-3-1.2264-3-2.75z"/><path d="M26 34.25v-27" class="B H"/></g><g class="F G B"><path d="M26 7.25v2.7001" class="C"/><path d="M26 7.925v2.0251" class="D"/></g><g class="E B"><path d="M28 60.25l-4.9968 4.9993"/><path d="M28 65.2501l-4.9968-4.9993"/><use href="#B"/></g><g class="F G B"><path d="M25.4999 41.25v2.1663" class="C"/><path d="M25.4999 41.7917v1.625" class="D"/><path d="M25.4999 106.2495v-2.1661" class="C"/><path d="M25.4999 105.7084v-1.625" class="D"/></g><g class="E"><use href="#C"/><path d="M23 38c0-1.5187 1.2312-2.75 2.75-2.75S28.5 36.4813 28.5 38s-1.2312 2.75-2.75 2.75S23 39.5188 23 38z"/><g class="B"><path d="M11.75 164.1389h27.5m-27.5-10.2778h27.5"/><path d="M25.5 164.1389v41.1116m0-51.3889V112.75"/></g></g><g class="F G B"><path d="M25.5 205.2505v-4.1116" class="C"/><path d="M25.5 204.2223v-3.0833" class="D"/><path d="M25.5 112.75v4.1116" class="C"/><path d="M25.5 113.7778v3.0833" class="D"/></g><path d="M74.5 34V7" class="B E H"/><g class="F G B"><path d="M74.5 7v2.7001" class="C"/><path d="M74.5 7.675v2.0251" class="D"/></g><g class="E B"><path d="M76.5 60l-4.9968 4.9993"/><path d="M76.5 65.0001l-4.9968-4.9993"/><path d="M74 62.6667V41m0 43.3334V106m0-21.6661l-7.9999-24.9154"/></g><g class="F G B"><path d="M73.9999 41v2.1663" class="C"/><path d="M73.9999 41.5417v1.625" class="D"/><path d="M73.9999 105.9995v-2.1661" class="C"/><path d="M73.9999 105.4584v-1.625" class="D"/></g><g class="E"><use href="#C" x="48.5" y="-0.25"/><path d="M71.5 37.75c0-1.5187 1.2312-2.75 2.75-2.75S77 36.2313 77 37.75s-1.2312 2.75-2.75 2.75-2.75-1.2312-2.75-2.75z"/><path d="M73.75 204.5v-91.75" class="B H"/></g><g class="F G B"><path d="M73.75 112.75v9.175" class="C"/><path d="M73.75 115.0436v6.8815" class="D"/></g><path d="M30.2493 3.25H70.625" class="B E H"/><g class="F G B"><path d="M70.625 3.25h-4.0372" class="C"/><path d="M69.6156 3.25H66.588" class="D"/></g><g class="E"><use href="#D"/><path d="M122.5 34.25v-27" class="B H"/></g><g class="F G B"><path d="M122.5 7.25v2.7001" class="C"/><path d="M122.5 7.925v2.0251" class="D"/></g><g class="E B"><path d="M124.5 60.25l-4.9968 4.9993"/><path d="M124.5 65.2501l-4.9968-4.9993"/><use href="#B" x="96.5"/></g><g class="F G B"><path d="M121.9999 41.25v2.1663" class="C"/><path d="M121.9999 41.7917v1.625" class="D"/><path d="M121.9999 106.2495v-2.1661" class="C"/><path d="M121.9999 105.7084v-1.625" class="D"/></g><g class="E"><use href="#C" x="96.5"/><path d="M119.5 38c0-1.5187 1.2312-2.75 2.75-2.75S125 36.4813 125 38s-1.2312 2.75-2.75 2.75-2.75-1.2312-2.75-2.75z"/><path d="M121.75 204.75V113" class="B H"/></g><g class="F G B"><path d="M121.75 113v9.175" class="C"/><path d="M121.75 115.2936v6.8815" class="D"/></g><path d="M78.2493 3.5h40.3757" class="B E H"/><g class="F G B"><path d="M118.625 3.5h-4.0372" class="C"/><path d="M117.6156 3.5h-3.0276" class="D"/></g><g class="E"><use href="#D" x="48" y="0.25"/><path d="M171.25 34.5v-27" class="B H"/></g><g class="F G B"><path d="M171.25 7.5v2.7001" class="C"/><path d="M171.25 8.175v2.0251" class="D"/></g><g class="E"><use href="#D" x="96.75" y="0.5"/><path d="M126.9993 3.75h40.3757" class="B H"/></g><g class="F G B"><path d="M167.375 3.75h-4.0372" class="C"/><path d="M166.3656 3.75h-3.0276" class="D"/></g><path d="M170.5 205v-91.75" class="B E H"/><g class="F G B"><path d="M170.5 113.25v9.175" class="C"/><path d="M170.5 115.5436v6.8815" class="D"/></g><g class="E"><path d="M168.25 38.25c0-1.5187 1.2312-2.75 2.75-2.75s2.75 1.2313 2.75 2.75S172.5188 41 171 41s-2.75-1.2312-2.75-2.75z"/><use href="#C" x="145.25" y="0.25"/><path d="M170.7499 63.1667V41.5m0 43.3334V106.5m.0001-21.6661l-7.9999-24.9154" class="B"/></g><g class="F G B"><path d="M170.7499 41.5v2.1663" class="C"/><path d="M170.7499 42.0417v1.625" class="D"/><path d="M170.7499 106.4995v-2.1661" class="C"/><path d="M170.7499 105.9584v-1.625" class="D"/></g><g class="E B"><path d="M173.25 60.5l-4.9969 4.9993"/><path d="M173.25 65.5001l-4.9969-4.9993"/><path d="M25.5 512.5v-80" stroke-dasharray="4"/></g></g><defs ><path id="B" d="M25.5 62.9167V41.25m0 43.3334V106.25m0-21.6661l-7.9999-24.9154"/><path id="C" d="M22.4999 109.5c0-1.5187 1.2312-2.75 2.75-2.75s2.75 1.2313 2.75 2.75-1.2312 2.75-2.75 2.75-2.75-1.2312-2.75-2.75z"/><path id="D" d="M71.75 3.5c0-1.5234 1.3384-2.75 3-2.75s3 1.2266 3 2.75-1.3376 2.75-3 2.75-3-1.2264-3-2.75z"/></defs></svg>