<svg xmlns="http://www.w3.org/2000/svg" width="1123" height="794" stroke="#000" stroke-linecap="round" stroke-linejoin="round" fill="#fff" fill-rule="evenodd"><style><![CDATA[.B{stroke-linecap:square}.C{stroke:#00f}.D{stroke:red}.E{fill:none}.F{fill:#000}.G{fill-rule:nonzero}.H{stroke-width:2}.I{stroke-linejoin:miter}.J{stroke-dasharray:4}.K{stroke-dasharray:4,2}]]></style><g class="I"><g class="E"><use href="#B"/><path d="M185.5 165.5v23.5704" class="B"/><use href="#B" y="47.1429"/><path d="M185.5 306.9286v23.5704" class="B"/></g><g class="F G B"><path d="M185.5 330.5004v-2.3575" class="C"/><path d="M185.5 329.9104v-1.7675" class="D"/><path d="M185.5 165.5v2.3575" class="C"/><path d="M185.5 166.0893v1.7675" class="D"/></g><g class="E B"><path d="M188.0001 349.5l-4.9969 4.9993"/><path d="M188.0001 354.5l-4.9969-4.9993"/><path d="M185.5 352.1667V330.5m0 43.3333V395.5"/><use href="#C"/></g><g class="F G B"><path d="M185.5 330.5v2.1662" class="C"/><path d="M185.5 331.0417v1.625" class="D"/><path d="M185.5 395.4995v-2.1662" class="C"/><path d="M185.5 394.9583v-1.625" class="D"/></g><g class="E B"><path d="M577.75 425.25V412.5" class="K"/><path d="M185.25 425v-22.75" class="H"/></g><g class="F G B"><path d="M185.25 402.25v2.275" class="C"/><path d="M185.25 402.8187v1.7063" class="D"/></g><g class="E B"><path d="M148.5 586.1111H176m-27.5-9.7222H176"/><path d="M162.25 586.1111v38.8893m0-48.6111V537.5"/></g><g class="F G B"><path d="M162.25 625.0004v-3.8893" class="C"/><path d="M162.25 624.0273v-2.9162" class="D"/><path d="M162.25 537.5v3.8893" class="C"/><path d="M162.25 538.4722v2.9162" class="D"/></g><g class="E"><use href="#D"/><use href="#D" y="30"/></g></g><g transform="matrix(0 1 -1 0 228.5 428.5)" class="B I"><path d="M0 39.75V0" class="E H"/><g class="F G"><path d="M0 0v3.975" class="C"/><path d="M0 .9937V3.975" class="D"/></g></g><g transform="matrix(0 -1 1 0 166.5 428.5)" class="B I"><path d="M0 15V0" class="E H"/><g class="F G"><path d="M0 0v1.5" class="C"/><path d="M0 .375v1.1251" class="D"/></g></g><g class="I"><g class="E"><use href="#D" x="-22.5" y="30"/><path d="M163 459.5v-27" class="B H"/></g><g class="F G B"><path d="M163 432.5v2.7" class="C"/><path d="M163 433.175v2.0251" class="D"/></g><g class="E B"><path d="M165 485.5l-4.9969 4.9993"/><path d="M165 490.5l-4.9969-4.9993"/><path d="M162.4999 488.1667V466.5m0 43.3333V531.5m0-21.6661L154.5 484.9185"/></g><g class="F G B"><path d="M162.4999 466.5v2.1662" class="C"/><path d="M162.4999 467.0417v1.625" class="D"/><path d="M162.4999 531.4995v-2.1662" class="C"/><path d="M162.4999 530.9583v-1.625" class="D"/></g><g class="E"><use href="#D" x="-23.0001" y="136"/><use href="#D" x="-22.5" y="64.5"/></g></g><g transform="matrix(0 -1 1 0 144.5 428.5)" class="B I"><path d="M0 15V0" class="E H"/><g class="F G"><path d="M0 0v1.5" class="C"/><path d="M0 .375v1.1251" class="D"/></g></g><g class="I"><g class="E"><use href="#E"/><path d="M232 459v-27" class="B H"/></g><g class="F G B"><path d="M232 432v2.7" class="C"/><path d="M232 432.675v2.0251" class="D"/></g><g class="E B"><path d="M234 485l-4.9969 4.9993"/><path d="M234 490l-4.9969-4.9993"/><use href="#F"/><use href="#G"/><path d="M231.4999 509.3339L223.5 484.4185"/></g><g class="F G B"><path d="M231.4999 466v2.1662" class="C"/><path d="M231.4999 466.5417v1.625" class="D"/><path d="M231.4999 530.9995v-2.1662" class="C"/><path d="M231.4999 530.4583v-1.625" class="D"/></g><g class="E"><use href="#D" x="45.9999" y="135.5"/><use href="#D" x="46.5" y="64"/><path d="M231.25 629.5v-91.75" class="B H"/></g><g class="F G B"><path d="M231.25 537.75v9.175" class="C"/><use href="#H" class="D"/></g></g><g transform="matrix(0 1 -1 0 308.5 428.5)" class="B I"><path d="M0 40.0944V0" class="E H"/><g class="F G"><path d="M0 0v4.0091" class="C"/><use href="#I" class="D"/></g></g><g class="I"><g class="E"><use href="#E" x="80.25"/><path d="M312.25 459v-27" class="B H"/></g><g class="F G B"><path d="M312.25 432v2.7" class="C"/><path d="M312.25 432.675v2.0251" class="D"/></g><g class="E B"><path d="M314.25 485l-4.9969 4.9993"/><path d="M314.25 490l-4.9969-4.9993"/><use href="#F" x="80.25"/><use href="#G" x="80.25"/><use href="#C" x="126.2499" y="135.5"/></g><g class="F G B"><path d="M311.7499 466v2.1662" class="C"/><path d="M311.7499 466.5417v1.625" class="D"/><path d="M311.7499 530.9995v-2.1662" class="C"/><path d="M311.7499 530.4583v-1.625" class="D"/></g><g class="E"><use href="#D" x="126.2499" y="135.5"/><use href="#D" x="126.75" y="64"/><path d="M311.5 629.5v-91.75" class="B H"/></g><g class="F G B"><path d="M311.5 537.75v9.175" class="C"/><use href="#H" x="80.25" class="D"/></g></g><g transform="matrix(0 -1 1 0 236 428.5)" class="B I"><path d="M0 31V0" class="E H"/><g class="F G"><path d="M0 0v3.1" class="C"/><use href="#J" class="D"/></g></g><g transform="matrix(0 1 -1 0 388.25 428.5)" class="B I"><path d="M0 40.0944V0" class="E H"/><g class="F G"><path d="M0 0v4.0091" class="C"/><use href="#I" class="D"/></g></g><g class="I"><g class="E"><use href="#E" x="160"/><path d="M392 459v-27" class="B H"/></g><g class="F G B"><path d="M392 432v2.7" class="C"/><path d="M392 432.675v2.0251" class="D"/></g><g class="E B"><path d="M394 485l-4.9969 4.9993"/><path d="M394 490l-4.9969-4.9993"/><use href="#F" x="160"/><use href="#G" x="160"/><path d="M391.4999 509.3339L383.5 484.4185"/></g><g class="F G B"><path d="M391.4999 466v2.1662" class="C"/><path d="M391.4999 466.5417v1.625" class="D"/><path d="M391.4999 530.9995v-2.1662" class="C"/><path d="M391.4999 530.4583v-1.625" class="D"/></g><g class="E"><use href="#D" x="205.9999" y="135.5"/><use href="#D" x="206.5" y="64"/><path d="M391.25 629.5v-91.75" class="B H"/></g><g class="F G B"><path d="M391.25 537.75v9.175" class="C"/><use href="#H" x="160" class="D"/></g></g><g transform="matrix(0 -1 1 0 315.75 428.5)" class="B I"><path d="M0 31V0" class="E H"/><g class="F G"><path d="M0 0v3.1" class="C"/><use href="#J" class="D"/></g></g><g transform="matrix(0 1 -1 0 468 428.5)" class="B I"><path d="M0 40.0944V0" class="E H"/><g class="F G"><path d="M0 0v4.0091" class="C"/><use href="#I" class="D"/></g></g><g class="I"><g class="E"><use href="#E" x="239.75"/><path d="M471.75 459v-27" class="B H"/></g><g class="F G B"><path d="M471.75 432v2.7" class="C"/><path d="M471.75 432.675v2.0251" class="D"/></g><g class="E B"><path d="M473.75 485l-4.9969 4.9993"/><path d="M473.75 490l-4.9969-4.9993"/><use href="#F" x="239.75"/><use href="#G" x="239.75"/><use href="#C" x="285.7499" y="135.5"/></g><g class="F G B"><path d="M471.2499 466v2.1662" class="C"/><path d="M471.2499 466.5417v1.625" class="D"/><path d="M471.2499 530.9995v-2.1662" class="C"/><path d="M471.2499 530.4583v-1.625" class="D"/></g><g class="E"><use href="#D" x="285.7499" y="135.5"/><use href="#D" x="286.25" y="64"/><path d="M471 629.5v-91.75" class="B H"/></g><g class="F G B"><path d="M471 537.75v9.175" class="C"/><use href="#H" x="239.75" class="D"/></g></g><g transform="matrix(0 -1 1 0 395.5 428.5)" class="B I"><path d="M0 31V0" class="E H"/><g class="F G"><path d="M0 0v3.1" class="C"/><use href="#J" class="D"/></g></g><g transform="matrix(0 1 -1 0 547.75 428.5)" class="B I"><path d="M0 40.0944V0" class="E H"/><g class="F G"><path d="M0 0v4.0091" class="C"/><use href="#I" class="D"/></g></g><g class="I"><g class="E"><use href="#E" x="319.5"/><path d="M551.5 459v-27" class="B H"/></g><g class="F G B"><path d="M551.5 432v2.7" class="C"/><path d="M551.5 432.675v2.0251" class="D"/></g><g class="E B"><path d="M553.5 485l-4.9969 4.9993"/><path d="M553.5 490l-4.9969-4.9993"/><use href="#F" x="319.5"/><use href="#G" x="319.5"/><path d="M550.9999 509.3339L543 484.4185"/></g><g class="F G B"><path d="M550.9999 466v2.1662" class="C"/><path d="M550.9999 466.5417v1.625" class="D"/><path d="M550.9999 530.9995v-2.1662" class="C"/><path d="M550.9999 530.4583v-1.625" class="D"/></g><g class="E"><use href="#D" x="365.4999" y="135.5"/><use href="#D" x="366" y="64"/><path d="M550.75 629.5v-91.75" class="B H"/></g><g class="F G B"><path d="M550.75 537.75v9.175" class="C"/><use href="#H" x="319.5" class="D"/></g></g><g transform="matrix(0 -1 1 0 475.25 428.5)" class="B I"><path d="M0 31V0" class="E H"/><g class="F G"><path d="M0 0v3.1" class="C"/><use href="#J" class="D"/></g></g><g transform="matrix(0 -1 1 0 555.625 428.5)" class="B I"><path d="M0 18.1255V0" class="E H"/><g class="F G"><path d="M0 0v1.8122" class="C"/><path d="M0 .4531v1.3601" class="D"/></g></g><g class="E I"><path d="M574.5 428.5c0-1.5235 1.3942-2.75 3.125-2.75s3.125 1.2265 3.125 2.75-1.3933 2.75-3.125 2.75-3.125-1.2265-3.125-2.75z"/><path d="M577.75 412.375h-13m.2499-.0001v-56.875" class="B J"/><use href="#K"/><g class="B J"><path d="M610.5 355.125H565m117.5 69.625V412"/><path d="M694.5 412.5h-13m13-.125V355.5"/></g></g><g transform="matrix(0 1 -1 0 649.7273 351.5)" class="B I"><path d="M3.6363 11.8177V0m0 23.6365v11.8177m-.0002-11.8183L0 10.0465" class="E"/><g class="F G"><path d="M3.6363 0v1.1822" class="C"/><path d="M3.6363.2955v.8865" class="D"/><path d="M3.6363 35.4551v-1.1822" class="C"/><path d="M3.6363 35.1594v-.8865" class="D"/></g></g><g class="E I"><use href="#L"/><use href="#L" x="39.0003" y="0.2273"/><path d="M694.4999 355.125h-40.9375" class="B J"/></g><path d="M639 351.5001l-1.125-3.7501" class="E"/><g transform="matrix(0 -1 1 0 686.5 428.5)" class="B I"><path d="M0 18.1255V0" class="E H"/><g class="F G"><path d="M0 0v1.8122" class="C"/><path d="M0 .4531v1.3601" class="D"/></g></g><g class="I"><g class="E"><use href="#K" x="26.25"/><path d="M708.5 459v-27" class="B H"/></g><g class="F G B"><path d="M708.5 432v2.7" class="C"/><path d="M708.5 432.675v2.0251" class="D"/></g><g class="E B"><path d="M710.5 485l-4.9969 4.9993"/><path d="M710.5 490l-4.9969-4.9993"/><use href="#F" x="476.5"/><use href="#G" x="476.5"/><path d="M707.9999 509.3339L700 484.4185"/></g><g class="F G B"><path d="M707.9999 466v2.1662" class="C"/><path d="M707.9999 466.5417v1.625" class="D"/><path d="M707.9999 530.9995v-2.1662" class="C"/><path d="M707.9999 530.4583v-1.625" class="D"/></g><g class="E"><use href="#D" x="522.4999" y="135.5"/><use href="#D" x="523" y="64"/></g></g><g transform="matrix(0 1 -1 0 784.875 428.625)" class="B I"><path d="M0 40.3757V0" class="E H"/><g class="F G"><use href="#M" class="C"/><use href="#N" class="D"/></g></g><g transform="matrix(0 -1 1 0 712.375 428.625)" class="B I"><path d="M0 24.375V0" class="E H"/><g class="F G"><path d="M0 0v2.4375" class="C"/><path d="M0 .6094v1.83" class="D"/></g></g><g class="I"><g class="B E"><path d="M694.25 588.8889h27.5m-27.5-10.2778h27.5"/><path d="M708 588.8889v41.1115m0-51.3889V537.5"/></g><g class="F G B"><path d="M708 630.0004v-4.1115" class="C"/><path d="M708 628.9721v-3.0832" class="D"/><path d="M708 537.5v4.1115" class="C"/><path d="M708 538.5278v3.0832" class="D"/></g><g class="E"><use href="#K" x="106" y="-0.25"/><path d="M788.625 459.125v-27" class="B H"/></g><g class="F G B"><path d="M788.625 432.125v2.7" class="C"/><path d="M788.625 432.8v2.0251" class="D"/></g><g class="E B"><path d="M789.0001 472.375l-1.872 1.8745"/><path d="M789.0001 474.2498l-1.872-1.8745m.9968.8747v-7.125m0 14.25v7.125m0-7.1255L784 472.1818"/></g><g class="F G B"><path d="M788.1249 466.125v.7121" class="C"/><path d="M788.1249 466.3031v.5344" class="D"/><path d="M788.1249 487.4996v-.7121" class="C"/><path d="M788.1249 487.3219v-.5344" class="D"/></g><g class="E"><use href="#D" x="602.5" y="92"/><use href="#D" x="603.125" y="64.125"/></g></g><g transform="matrix(0 1 -1 0 784.25 490.75)" class="B I"><path d="M0 27V0" class="E H"/><g class="F G"><path d="M0 0v2.7" class="C"/><path d="M0 .675v2.0251" class="D"/></g></g><g transform="matrix(0 -1 1 0 791 490.5)" class="B I"><path d="M0 27V0" class="E H"/><g class="F G"><path d="M0 0v2.7" class="C"/><path d="M0 .675v2.0251" class="D"/></g></g><g class="I"><g class="E"><use href="#D" x="568.5" y="92"/><use href="#D" x="636" y="91.5"/><path d="M753.5 605.5V494" class="B H"/></g><g class="F G B"><path d="M753.5 494v11.15" class="C"/><path d="M753.5 496.7875v8.3626" class="D"/></g><path d="M821.5 605.5V494" class="B E H"/><g class="F G B"><path d="M821.5 494v11.15" class="C"/><path d="M821.5 496.7875v8.3626" class="D"/></g><g class="E"><use href="#K" x="58" y="-0.25"/><use href="#B" x="555" y="-1"/><path d="M740.5 164.5v23.5704" class="B"/><use href="#B" x="555" y="46.1429"/><path d="M740.5 305.9286v23.5704" class="B"/></g><g class="F G B"><path d="M740.5 329.5004v-2.3575" class="C"/><path d="M740.5 328.9104v-1.7675" class="D"/><path d="M740.5 164.5v2.3575" class="C"/><path d="M740.5 165.0893v1.7675" class="D"/></g><g class="E"><use href="#D" x="555" y="-1"/><path d="M740.25 424.5v-23.25" class="B H"/></g><g class="F G B"><path d="M740.25 401.25v2.325" class="C"/><path d="M740.25 401.8312v1.7438" class="D"/></g><g class="E B"><path d="M740.5 351.1667V329.5m0 43.3333V394.5"/><use href="#C" x="555" y="-1"/></g><g class="F G B"><path d="M740.5 329.5v2.1662" class="C"/><path d="M740.5 330.0417v1.625" class="D"/><path d="M740.5 394.4995v-2.1662" class="C"/><path d="M740.5 393.9583v-1.625" class="D"/></g><g class="E B"><path d="M743.0001 348.5l-4.9969 4.9993"/><path d="M743.0001 353.5l-4.9969-4.9993"/></g></g><g transform="matrix(0 1 -1 0 832.875 428.625)" class="B I"><path d="M0 40.3757V0" class="E H"/><g class="F G"><use href="#M" class="C"/><use href="#N" class="D"/></g></g><use href="#K" x="154" y="-0.25" class="E I"/><g transform="matrix(0 1 -1 0 880.875 428.5)" class="B I"><path d="M0 40.3757V0" class="E H"/><g class="F G"><use href="#M" class="C"/><use href="#N" class="D"/></g></g><g class="I"><g class="E"><use href="#K" x="202.5" y="0.25"/><path d="M885 459.75v-27" class="B H"/></g><g class="F G B"><path d="M885 432.75v2.7" class="C"/><path d="M885 433.425v2.0251" class="D"/></g><g class="E B"><path d="M887 485.75l-4.9969 4.9993"/><path d="M887 490.75l-4.9969-4.9993"/><path d="M884.4999 488.4167V466.75m0 43.3333V531.75m0-21.6661L876.5 485.1685"/></g><g class="F G B"><path d="M884.4999 466.75v2.1662" class="C"/><path d="M884.4999 467.2917v1.625" class="D"/><path d="M884.4999 531.7495v-2.1662" class="C"/><path d="M884.4999 531.2083v-1.625" class="D"/></g><g class="E"><use href="#D" x="698.9999" y="136.25"/><use href="#D" x="699.5" y="64.75"/><g class="B"><path d="M870.75 589.6389h27.5m-27.5-10.2778h27.5"/><path d="M884.5 589.6389v41.1115m0-51.3889V538.25"/></g></g><g class="F G B"><path d="M884.5 630.7504v-4.1115" class="C"/><path d="M884.5 629.7221v-3.0832" class="D"/><path d="M884.5 538.25v4.1115" class="C"/><path d="M884.5 539.2778v3.0832" class="D"/></g><path d="M933.5 459.5v-27" class="B E H"/><g class="F G B"><path d="M933.5 432.5v2.7" class="C"/><path d="M933.5 433.175v2.0251" class="D"/></g><g class="E B"><path d="M935.5 485.5l-4.9969 4.9993"/><path d="M935.5 490.5l-4.9969-4.9993"/><path d="M932.9999 488.1667V466.5m0 43.3333V531.5m0-21.6661L925 484.9185"/></g><g class="F G B"><path d="M932.9999 466.5v2.1662" class="C"/><path d="M932.9999 467.0417v1.625" class="D"/><path d="M932.9999 531.4995v-2.1662" class="C"/><path d="M932.9999 530.9583v-1.625" class="D"/></g><g class="E"><use href="#D" x="747.4999" y="136"/><use href="#D" x="748" y="64.5"/><path d="M932.75 630v-91.75" class="B H"/></g><g class="F G B"><path d="M932.75 538.25v9.175" class="C"/><use href="#H" x="701.5" y="0.5" class="D"/></g></g><g transform="matrix(0 1 -1 0 929.625 428.75)" class="B I"><path d="M0 40.3757V0" class="E H"/><g class="F G"><use href="#M" class="C"/><use href="#N" class="D"/></g></g><g class="I"><g class="E"><use href="#K" x="251.25" y="0.5"/><path d="M981.5 459.75v-27" class="B H"/></g><g class="F G B"><path d="M981.5 432.75v2.7" class="C"/><path d="M981.5 433.425v2.0251" class="D"/></g><g class="E B"><path d="M983.5 485.75l-4.9969 4.9993"/><path d="M983.5 490.75l-4.9969-4.9993"/><path d="M980.9999 488.4167V466.75m0 43.3333V531.75m0-21.6661L973 485.1685"/></g><g class="F G B"><path d="M980.9999 466.75v2.1662" class="C"/><path d="M980.9999 467.2917v1.625" class="D"/><path d="M980.9999 531.7495v-2.1662" class="C"/><path d="M980.9999 531.2083v-1.625" class="D"/></g><g class="E"><use href="#D" x="795.4999" y="136.25"/><use href="#D" x="796" y="64.75"/><path d="M980.75 630.25V538.5" class="B H"/></g><g class="F G B"><path d="M980.75 538.5v9.175" class="C"/><use href="#H" x="749.5" y="0.75" class="D"/></g></g><g transform="matrix(0 1 -1 0 977.625 429)" class="B I"><path d="M0 40.3757V0" class="E H"/><g class="F G"><use href="#M" class="C"/><use href="#N" class="D"/></g></g><g class="I"><g class="E"><use href="#K" x="299.25" y="0.75"/><path d="M1030.25 460v-27" class="B H"/></g><g class="F G B"><path d="M1030.25 433v2.7" class="C"/><path d="M1030.25 433.675v2.0251" class="D"/></g><use href="#K" x="348" y="1" class="E"/></g><g transform="matrix(0 1 -1 0 1026.375 429.25)" class="B I"><path d="M0 40.3757V0" class="E H"/><g class="F G"><use href="#M" class="C"/><use href="#N" class="D"/></g></g><g class="I"><g class="B"><path d="M1029.5 630.5v-91.75" class="E H"/><g class="F G"><path d="M1029.5 538.75v9.175" class="C"/><use href="#H" x="798.25" y="1" class="D"/></g></g><g class="E"><use href="#D" x="844.75" y="65"/><use href="#D" x="844.2499" y="136.5"/><g class="B"><path d="M1029.7499 488.6667V467m0 43.3333V532"/><use href="#C" x="844.2499" y="136.5"/></g></g><g class="F G B"><path d="M1029.7499 467v2.1662" class="C"/><path d="M1029.7499 467.5417v1.625" class="D"/><path d="M1029.7499 531.9995v-2.1662" class="C"/><path d="M1029.7499 531.4583v-1.625" class="D"/></g><g class="E B"><path d="M1032.25 486l-4.9969 4.9993"/><path d="M1032.25 491l-4.9969-4.9993"/></g></g><path d="M874.375 490.6251l3.125-1.0001m93.5-1.4375l.4375-.1249 1.9375-.5626m-752.3749 2.25l3.2499-1.25m157.25-.2499l2.875-1.1251" class="E"/><g class="B I E"><path d="M185.5 84.5v80" class="K"/><path d="M740.5 88v80" class="J"/></g><path d="M735.2501 318.5l10.4999-5.25m-9.4999 8L746.75 316M735.5 174.75l10.4999-5.25m-9.4999 8l10.4999-5.25m-567.4997 6l10.4999-5.25m-9.4999 8l10.4999-5.25M179.75 319l10.4999-5.25m-9.4999 8l10.4999-5.25" class="E"/><g class="B I"><path d="M142.25 656h40" class="E"/><path d="M162.25 626v30m-14 10h28m-22 10h16m-7 10h-2m41 0h0" class="E"/><g class="F G"><path d="M162.25 626v4" class="C"/><path d="M162.25 627v3" class="D"/></g><g class="E"><path d="M688 661h40"/><path d="M708 631v30m-14 10h28m-22 10h16m-7 10h-2m41 0h0"/></g><g class="F G"><path d="M708 631v4" class="C"/><path d="M708 632v3" class="D"/></g></g><path d="M214.25 631h32.5m47.25 0h32.5m48.75 0h32.5m47 0h32.5m46.5 0h32.5m238.5-24h32.5m-100.5-.25h32.5m98.5 24.75h32.5m15-.25h32.5m15.75.25H996m17 .25h32.5" class="E"/><defs ><path id="B" d="M160.5 224.4289c0-19.5888 11.15-35.3575 25-35.3575s25 15.7687 25 35.3575-11.15 35.3562-25 35.3562-25-15.7687-25-35.3562z"/><path id="C" d="M185.5 373.8339l-7.9999-24.9154"/><path id="D" d="M182.5 398.75a2.744 2.744 0 1 1 5.5 0 2.744 2.744 0 1 1-5.5 0z"/><path id="E" d="M229 428.75c0-1.5235 1.338-2.75 3-2.75s3 1.2265 3 2.75-1.338 2.75-3 2.75-3-1.2265-3-2.75z"/><path id="F" d="M231.4999 487.6667V466"/><path id="G" d="M231.4999 509.3333V531"/><path id="H" d="M231.25 540.0437v6.8814"/><path id="I" d="M0 1.0023v3.0065"/><path id="J" d="M0 .775v2.3257"/><path id="K" d="M679.5 428.5c0-1.5235 1.3384-2.75 3-2.75s3 1.2265 3 2.75-1.3376 2.75-3 2.75-3-1.2265-3-2.75z"/><path id="L" d="M612.4992 353.7727c.8307 0 1.5005.5575 1.5005 1.25s-.6698 1.25-1.5005 1.25-1.5006-.5575-1.5006-1.25.6701-1.25 1.5006-1.25z"/><path id="M" d="M0 0v4.0372"/><path id="N" d="M0 1.0094V4.037"/></defs></svg>