<svg xmlns="http://www.w3.org/2000/svg"
     xmlns:xlink="http://www.w3.org/1999/xlink"
     width="70" height="70">
  <defs>
    <g id="terminal" stroke-width="1" stroke-linecap="square">
      <line x1="0" y1="0" x2="0" y2="4" stroke="#0000FF" />
      <line x1="0" y1="1" x2="0" y2="4" stroke="#FF0000" />
    </g>
  </defs>
  <g transform="translate(25,37)" stroke-linecap="square">
    <text transform="translate(75.8, 54.9) rotate(0 -5.8 -29.9)" font-family="Sans Serif,MS Sans Serif" font-size="18pt" fill="#000000"></text>
    <g stroke-width="1" fill="none" stroke="#000000" transform="translate(-20,0)" >
      <line x1="0" y1="0" x2="40" y2="0" />
      </g>
    <g stroke-width="1" fill="none" stroke="#000000" transform="translate(0,-30) rotate(90)" >
      <line x1="0" y1="0" x2="30" y2="0" />
      </g>
    <g stroke-width="1" fill="none" stroke="#000000" transform="translate(-14,10)" >
      <line x1="0" y1="0" x2="28" y2="0" />
      </g>
    <g stroke-width="1" fill="none" stroke="#000000" transform="translate(-8,20)" >
      <line x1="0" y1="0" x2="16" y2="0" />
      </g>
    <g stroke-width="1" fill="none" stroke="#000000" transform="translate(1,30) rotate(180)" >
      <line x1="0" y1="0" x2="2" y2="0" />
      </g>
    <path d="M 40 30 A 40 40 0 0 0 40 30" stroke-width="1" fill="none" stroke="#000000" />
    <use xlink:href="#terminal" x="0" y="-30" />
  </g>
  Your Browser does not support inline SVG!
</svg>

