<svg xmlns="http://www.w3.org/2000/svg"
     xmlns:xlink="http://www.w3.org/1999/xlink"
     width="170" height="370">
  <defs>
    <g id="terminal" stroke-width="1" stroke-linecap="square">
      <line x1="0" y1="0" x2="0" y2="4" stroke="#0000FF" />
      <line x1="0" y1="1" x2="0" y2="4" stroke="#FF0000" />
    </g>
  </defs>
  <g transform="translate(168,341)" stroke-linecap="square">
    <text transform="translate(15.8, 54.9) rotate(0 -5.8 -29.9)" font-family="Sans Serif,MS Sans Serif" font-size="18pt" fill="#000000"></text>
    <ellipse cx="-60" cy="-180" rx="60" ry="60" stroke-width="1" fill="none" stroke="#000000" />
    <g stroke-width="1" fill="none" stroke="#000000" transform="translate(-60,-300) rotate(90)" >
      <line x1="0" y1="0" x2="60" y2="0" />
      </g>
    <text transform="translate(-148, -320)" font-family="Sans Serif,MS Sans Serif" font-size="18pt" fill="#000000">Form 1 / Forme 1</text>
    <ellipse cx="-60" cy="-100" rx="60" ry="60" stroke-width="1" fill="none" stroke="#000000" />
    <g stroke-width="1" fill="none" stroke="#000000" transform="translate(-60,-40) rotate(90)" >
      <line x1="0" y1="0" x2="60" y2="0" />
      </g>
    <g stroke-width="1" fill="none" stroke="#000000" transform="translate(-80,-260) rotate(-26.57)" >
      <line x1="0" y1="0" x2="44.72" y2="0" />
      </g>
    <g stroke-width="1" fill="none" stroke="#000000" transform="translate(-80,-270) rotate(-26.57)" >
      <line x1="0" y1="0" x2="44.72" y2="0" />
      </g>
    <g stroke-width="1" fill="none" stroke="#000000" transform="translate(-80,0) rotate(-26.57)" >
      <line x1="0" y1="0" x2="44.72" y2="0" />
      </g>
    <g stroke-width="1" fill="none" stroke="#000000" transform="translate(-80,10) rotate(-26.57)" >
      <line x1="0" y1="0" x2="44.72" y2="0" />
      </g>
    <g stroke-dasharray="4,2" stroke-width="1" fill="none" stroke="#000000" transform="translate(-120,-140)" >
      <line x1="0" y1="0" x2="120" y2="0" />
      </g>
    <use xlink:href="#terminal" x="-60" y="20" transform="rotate(180 -60 20)" />
    <use xlink:href="#terminal" x="-60" y="-300" />
  </g>
  Your Browser does not support inline SVG!
</svg>

