<svg xmlns="http://www.w3.org/2000/svg" width="1123" height="794" stroke="#000" stroke-linecap="round" stroke-linejoin="round" fill="#fff" fill-rule="evenodd" font-family="Roboto" font-size="14" text-anchor="middle"><style><![CDATA[svg text{white-space:pre}.B{font-size:20px}.C{stroke-dasharray:16,16}.D{marker-end:url(#A)}.E{font-family:Arial, sans-serif}.F{marker-end:url(#B)}]]></style><defs><marker id="A" viewBox="-4 -6 8 6" markerWidth="12" markerHeight="12"><path d="M-3.06 0L0-5.3 3.06 0z"/></marker><marker id="B" viewBox="-4 -6 8 6" markerWidth="12" markerHeight="12"><path d="M-3.06 0L0-5.3 3.06 0z"/></marker><path id="C" d="M100.42 21.63h386.03v436.46H6.42V21.63h58"/><path id="D" d="M217 249V147.5h84m160 0h167.5v85m0 143v56H217v-70"/></defs><g transform="translate(290.5 34.5)"><svg width="474" height="350" viewBox="0 0 744 470"><g fill="none" stroke-width="4"><use href="#C" class="C"/><circle cx="217" cy="305" r="56"/><path d="M301 119h160v57H301zm299 113h57v143h-57z"/><use href="#D"/><path d="M133 361.4v-77" class="D"/><path d="M687 376V271" class="D"/></g><g font-size="32" font-weight="bold" stroke="none" fill="#000" class="E"><text x="70" y="31.5">G</text><text x="77" y="314">V<tspan dy="4" class="B">G</tspan></text><text x="360" y="92">R<tspan dy="4" class="B">G</tspan></text><text x="544" y="312">R<tspan dy="4" class="B">L</tspan></text><text x="704" y="315">V<tspan dy="4" class="B">L</tspan></text></g></svg></g><g transform="translate(295.5 377)"><svg width="474" height="350" viewBox="0 0 744 470"><g fill="none" stroke-width="4"><use href="#C" class="C"/><circle cx="217" cy="305" r="56"/><path d="M301 119h160v57H301zm299 113h57v143h-57z"/><use href="#D"/><path d="M133 361.4v-77" class="F"/><path d="M687 376V271" class="F"/></g><g font-size="32" font-weight="bold" stroke="none" fill="#000" class="E"><text x="70" y="31.5">G</text><text x="77" y="314">V<tspan dy="4" class="B">G</tspan></text><text x="360" y="92">R<tspan dy="4" class="B">G</tspan></text><text x="544" y="312">R<tspan dy="4" class="B">L</tspan></text><text x="704" y="315">V<tspan dy="4" class="B">L</tspan></text></g></svg></g></svg>